<?xml version="1.0" encoding="UTF-8"?>
<!DOCTYPE svg PUBLIC "-//W3C//DTD SVG 1.1//EN" "http://www.w3.org/Graphics/SVG/1.1/DTD/svg11.dtd">
<!-- Creator: CorelDRAW 2019 (64-Bit) -->
<svg xmlns="http://www.w3.org/2000/svg" xml:space="preserve" width="184.56mm" height="116.176mm" version="1.1" style="shape-rendering:geometricPrecision; text-rendering:geometricPrecision; image-rendering:optimizeQuality; fill-rule:evenodd; clip-rule:evenodd"
viewBox="0 0 18456 11617.6"
 xmlns:xlink="http://www.w3.org/1999/xlink">
 <defs>
  <style type="text/css">
   <![CDATA[
    .fil0 {fill:#CBF3F0}
    .fil2 {fill:#FFBF69}
    .fil1 {fill:#2EC4B6;fill-rule:nonzero}
    .fil3 {fill:#FF9F1C;fill-rule:nonzero}
   ]]>
  </style>
 </defs>
 <g id="Layer_x0020_1">
  <metadata id="CorelCorpID_0Corel-Layer"/>
  <polygon class="fil0" points="13330.96,5419.68 15809.44,4755.57 16141.85,8729.72 13330.96,8729.72 "/>
  <path class="fil1" d="M18455.28 7425.42c0,1072.67 -434.91,2043.92 -1138.04,2747.05 -703.11,703.11 -1674.37,1138.03 -2747.04,1138.03 -1072.67,0 -2043.92,-434.92 -2747.05,-1138.03 -703.12,-703.14 -1138.03,-1674.39 -1138.03,-2747.05l2645.84 0c0,342.33 138.68,652.18 362.87,876.37 224.19,224.19 534.05,362.87 876.37,362.87 342.32,0 652.17,-138.68 876.36,-362.87 224.2,-224.2 362.88,-534.05 362.88,-876.37l2645.84 0zm-2645.84 0l2644.68 0 0 -3378.49 -2644.68 708.64 0 2669.85zm-2478.48 0l-2645.84 0 0 -1296.79 2645.84 -708.95 0 2005.74z"/>
  <polygon class="fil2" points="2609.12,8304.45 5490.23,7517.32 6034.76,8454.54 2609.12,9608.13 "/>
  <path class="fil3" d="M4994.74 5391.57c-44.6,-168.96 -79.81,-352.79 -105.4,-550.16 -26.9,-207.46 -40.45,-391.8 -40.45,-551.61 0,-1175 472.41,-2242.07 1236.19,-3017.39 769.7,-781.33 1831.1,-1264.61 3001.73,-1264.61 1170.64,0 2232.03,483.28 3001.73,1264.61 763.78,775.32 1236.19,1842.39 1236.19,3017.39l-2645.84 0c0,-459.24 -180.14,-871.74 -471.37,-1167.37 -285.32,-289.63 -681.45,-468.79 -1120.71,-468.79 -439.26,0 -835.39,179.16 -1120.71,468.79 -291.23,295.63 -471.37,708.13 -471.37,1167.37 0,98.78 3.16,172.53 9.43,220.89 7.57,58.43 22.07,128.27 43.4,209.08l-2552.82 671.8zm307.91 1152.92l2578.4 -693.5 -333.49 -1131.22 -2552.82 671.8 307.91 1152.92zm5376.24 -2254.69l2652.07 0 0 95.36 -2652.07 713.31 0 -808.67z"/>
  <path class="fil3" d="M8101.94 6819.34c118.08,907.33 -60.58,1805.36 -472.94,2576.2 -510.21,953.76 -1378.94,1709.88 -2487.93,2047.36l-203.81 62.02 -22.42 0c-1049.44,257.12 -2114.72,92.24 -3010.88,-394.43 -830.67,-451.08 -1515.47,-1180.75 -1904.63,-2107.66 0,0 2609.79,-698.38 2609.79,-698.38 147.66,206.28 338.85,373.16 555.74,490.94 360.44,195.74 792.74,253.11 1211.38,125.71l0.45 -0.14c411.98,-125.49 735.71,-408.31 926.87,-765.66 103.84,-194.12 168.37,-411.09 186.67,-637.98 0,0 2611.71,-697.98 2611.71,-697.98z"/>
 </g>
</svg>
