<?xml version="1.0" encoding="UTF-8"?>
<!DOCTYPE svg PUBLIC "-//W3C//DTD SVG 1.1//EN" "http://www.w3.org/Graphics/SVG/1.1/DTD/svg11.dtd">
<!-- Creator: CorelDRAW 2019 (64-Bit) -->
<svg xmlns="http://www.w3.org/2000/svg" xml:space="preserve" width="484.766mm" height="116.176mm" version="1.1" style="shape-rendering:geometricPrecision; text-rendering:geometricPrecision; image-rendering:optimizeQuality; fill-rule:evenodd; clip-rule:evenodd"
viewBox="0 0 48476.6 11617.6"
 xmlns:xlink="http://www.w3.org/1999/xlink">
 <defs>
  <style type="text/css">
   <![CDATA[
    .fil0 {fill:#CBF3F0}
    .fil2 {fill:#FFBF69}
    .fil1 {fill:#2EC4B6;fill-rule:nonzero}
    .fil4 {fill:#CBF3F0;fill-rule:nonzero}
    .fil3 {fill:#FF9F1C;fill-rule:nonzero}
   ]]>
  </style>
 </defs>
 <g id="Layer_x0020_1">
  <metadata id="CorelCorpID_0Corel-Layer"/>
  <polygon class="fil0" points="13329.86,5419.68 15808.34,4755.57 16140.75,8729.72 13329.86,8729.72 "/>
  <path class="fil1" d="M18454.18 7425.42c0,1072.67 -434.91,2043.92 -1138.04,2747.05 -703.11,703.11 -1674.37,1138.03 -2747.04,1138.03 -1072.67,0 -2043.92,-434.92 -2747.05,-1138.03 -703.12,-703.14 -1138.03,-1674.39 -1138.03,-2747.05l2645.84 0c0,342.33 138.68,652.18 362.87,876.37 224.19,224.19 534.05,362.87 876.37,362.87 342.32,0 652.17,-138.68 876.36,-362.87 224.2,-224.2 362.88,-534.05 362.88,-876.37l2645.84 0zm-2645.84 0l2644.68 0 0 -3378.49 -2644.68 708.64 0 2669.85zm-2478.48 0l-2645.84 0 0 -1296.79 2645.84 -708.95 0 2005.74z"/>
  <polygon class="fil2" points="2608.02,8304.45 5489.13,7517.32 6033.66,8454.54 2608.02,9608.13 "/>
  <path class="fil3" d="M4993.64 5391.57c-44.6,-168.96 -79.81,-352.79 -105.4,-550.16 -26.9,-207.46 -40.45,-391.8 -40.45,-551.61 0,-1175 472.41,-2242.07 1236.19,-3017.39 769.7,-781.33 1831.1,-1264.61 3001.73,-1264.61 1170.64,0 2232.03,483.28 3001.73,1264.61 763.78,775.32 1236.19,1842.39 1236.19,3017.39l-2645.84 0c0,-459.24 -180.14,-871.74 -471.37,-1167.37 -285.32,-289.63 -681.45,-468.79 -1120.71,-468.79 -439.26,0 -835.39,179.16 -1120.71,468.79 -291.23,295.63 -471.37,708.13 -471.37,1167.37 0,98.78 3.16,172.53 9.43,220.89 7.57,58.43 22.07,128.27 43.4,209.08l-2552.82 671.8zm307.91 1152.92l2578.4 -693.5 -333.49 -1131.22 -2552.82 671.8 307.91 1152.92zm5376.24 -2254.69l2652.07 0 0 95.36 -2652.07 713.31 0 -808.67z"/>
  <path class="fil3" d="M8100.84 6819.34c118.08,907.33 -60.58,1805.36 -472.94,2576.2 -510.21,953.76 -1378.94,1709.88 -2487.93,2047.36l-203.81 62.02 -22.42 0c-1049.44,257.12 -2114.72,92.24 -3010.88,-394.43 -830.67,-451.08 -1515.47,-1180.75 -1904.63,-2107.66 0,0 2609.79,-698.38 2609.79,-698.38 147.66,206.28 338.85,373.16 555.74,490.94 360.44,195.74 792.74,253.11 1211.38,125.71l0.45 -0.14c411.98,-125.49 735.71,-408.31 926.87,-765.66 103.84,-194.12 168.37,-411.09 186.67,-637.98 0,0 2611.71,-697.98 2611.71,-697.98z"/>
  <path class="fil1" d="M30441.45 4788.24l0 -2737.44 841.89 0c240.63,0 456.24,53.9 646.17,162.35 189.95,108.45 338.17,263.1 444.7,462.66 106.51,200.21 159.78,427.37 159.78,681.47l0 126.41c0,254.11 -52.62,480.62 -157.22,678.27 -104.59,198.28 -252.18,351.63 -442.76,460.72 -190.58,109.09 -405.54,164.27 -644.89,165.56l-847.67 0zm564.04 -2279.27l0 1824.96 272.71 0c220.1,0 388.87,-71.88 505.65,-215.61 116.15,-144.38 175.83,-350.36 178.39,-617.94l0 -144.39c0,-277.85 -57.75,-488.96 -173.25,-632.05 -114.86,-143.1 -283.63,-214.97 -505.65,-214.97l-277.85 0zm2556.41 2279.27l-563.4 0 0 -2737.44 563.4 0 0 2737.44zm2707.2 -345.87c-101.39,121.92 -244.49,216.25 -430.58,283.63 -185.45,67.37 -390.78,100.74 -616.01,100.74 -237.43,0 -444.7,-51.98 -623.72,-155.28 -178.39,-103.32 -316.36,-253.48 -413.25,-450.47 -97.54,-197 -146.95,-428.65 -149.51,-694.31l0 -186.08c0,-273.36 46.2,-510.15 137.96,-710.35 92.4,-200.21 225.23,-352.93 398.49,-458.81 173.89,-105.87 377.3,-159.14 610.24,-159.14 324.69,0 578.15,77.65 761.68,232.29 182.88,154.65 291.32,379.88 324.7,675.06l-548.65 0c-25.03,-156.58 -80.85,-271.43 -166.2,-343.95 -85.99,-72.51 -204.05,-109.08 -354.85,-109.08 -191.22,0 -337.52,71.87 -437.63,216.25 -100.1,144.37 -151.44,358.7 -152.08,643.6l0 174.55c0,287.47 53.9,504.36 162.99,651.31 109.09,146.95 268.87,220.1 479.34,220.1 212.4,0 363.19,-44.92 453.67,-135.4l0 -472.92 -513.35 0 0 -415.81 1076.76 0 0 1094.07zm1076.03 345.87l-563.4 0 0 -2737.44 563.4 0 0 2737.44zm2548.06 -2279.27l-838.69 0 0 2279.27 -564.04 0 0 -2279.27 -827.14 0 0 -458.17 2229.87 0 0 458.17zm1659.96 1717.16l-988.84 0 -188.02 562.11 -599.32 0 1018.35 -2737.44 522.97 0 1024.77 2737.44 -599.97 0 -189.94 -562.11zm-836.75 -458.17l684.67 0 -343.95 -1025.41 -340.72 1025.41zm458.16 -2611.11l592.27 0 -521.05 581.38 -441.48 0 370.26 -581.38zm2007.12 3177.08l1197.39 0 0 454.31 -1761.44 0 0 -2737.44 564.05 0 0 2283.13zm3765.34 454.31l-564.04 0 -1097.29 -1801.21 0 1801.21 -564.04 0 0 -2737.44 564.04 0 1099.21 1805.07 0 -1805.07 562.12 0 0 2737.44zm1111.33 0l-563.4 0 0 -2737.44 563.4 0 0 2737.44zm-175.83 -3639.08l592.28 0 -521.04 581.36 -441.49 0 370.25 -581.36z"/>
  <path class="fil3" d="M27089.82 5279.33l0 1850.74c0,307.47 -96.12,550.42 -288.37,729.5 -192.26,178.42 -454.96,267.97 -788.1,267.97 -327.89,0 -588.61,-86.9 -781.52,-260.72 -192.91,-173.16 -291.01,-412.16 -294.95,-715.68l0 -1871.81 578.72 0 0 1853.38c0,184.35 44.12,318 132.34,402.27 88.23,84.28 210.03,126.42 365.41,126.42 325.24,0 490.5,-171.19 495.76,-512.89l0 -1869.18 580.71 0zm2846.22 1874.45c-21.72,302.2 -132.99,539.88 -334.47,713.7 -200.8,173.16 -466.14,260.06 -795.33,260.06 -360.14,0 -643.25,-121.15 -849.99,-364.1 -206.07,-242.28 -309.44,-575.42 -309.44,-998.78l0 -171.83c0,-269.94 47.41,-508.28 142.87,-714.36 94.81,-205.41 231.1,-363.43 407.55,-473.38 177.1,-109.96 382.52,-165.26 616.25,-165.26 324.59,0 585.32,86.91 783.49,260.07 198.17,173.82 312.73,417.42 343.02,731.47l-578.73 0c-13.82,-181.72 -64.52,-313.39 -151.43,-395.03 -86.24,-81.64 -218.59,-122.47 -396.35,-122.47 -192.91,0 -337.1,69.14 -432.56,207.4 -96.12,138.26 -144.84,352.9 -147.49,643.9l0 212.01c0,303.52 45.44,525.4 137.61,665.64 92.18,140.23 237.03,210.68 435.2,210.68 178.42,0 312.07,-40.82 400.3,-121.81 87.57,-81.64 138.26,-207.39 151.43,-377.91l578.07 0zm-1128.48 -2649.79l281.78 -276.53 476.68 0 0 21.07 -582.67 543.83 -352.9 0 -582.68 -547.78 0 -17.12 476.67 0 283.12 276.53zm3365.69 2363.39l-1110.71 0 0 754.52 1303.62 0 0 466.14 -1882.35 0 0 -2808.71 1878.39 0 0 470.09 -1299.66 0 0 667.62 1110.71 0 0 450.34zm699.19 1220.66l0 -2808.71 983.64 0c341.05,0 599.79,65.18 775.59,196.2 176.44,130.37 264.67,321.96 264.67,574.12 0,137.61 -35.56,259.41 -106.66,364.1 -70.44,104.68 -168.55,181.71 -294.96,230.43 144.19,36.21 257.44,108.64 340.39,217.94 82.96,109.28 124.43,242.94 124.43,400.95 0,269.94 -86.25,474.04 -258.09,612.96 -172.49,138.92 -418.07,209.37 -736.73,212.01l-1092.28 0zm578.73 -1220.66l0 754.52 495.77 0c136.28,0 242.95,-32.26 319.31,-96.79 76.38,-64.52 114.57,-154.06 114.57,-267.96 0,-256.12 -133,-385.82 -398.98,-389.77l-530.67 0zm0 -410.84l428.62 0c291.66,-5.27 437.83,-121.14 437.83,-348.94 0,-127.07 -36.88,-218.59 -111.27,-274.55 -73.75,-55.97 -190.28,-83.63 -350.27,-83.63l-404.91 0 0 707.12zm4393.44 1631.5l-578.73 0 -1125.84 -1848.11 0 1848.11 -578.73 0 0 -2808.71 578.73 0 1127.82 1852.06 0 -1852.06 576.75 0 0 2808.71zm1287.81 0l-578.07 0 0 -2808.71 578.07 0 0 2808.71zm2908.11 -934.26c-21.73,302.2 -133,539.88 -334.47,713.7 -200.81,173.16 -466.14,260.06 -795.34,260.06 -360.14,0 -643.24,-121.15 -849.98,-364.1 -206.07,-242.28 -309.44,-575.42 -309.44,-998.78l0 -171.83c0,-269.94 47.4,-508.28 142.86,-714.36 94.81,-205.41 231.11,-363.43 407.56,-473.38 177.1,-109.96 382.51,-165.26 616.25,-165.26 324.58,0 585.31,86.91 783.49,260.07 198.17,173.82 312.73,417.42 343.02,731.47l-578.73 0c-13.83,-181.72 -64.52,-313.39 -151.44,-395.03 -86.24,-81.64 -218.58,-122.47 -396.34,-122.47 -192.91,0 -337.1,69.14 -432.57,207.4 -96.12,138.26 -144.84,352.9 -147.48,643.9l0 212.01c0,303.52 45.44,525.4 137.6,665.64 92.18,140.23 237.03,210.68 435.2,210.68 178.42,0 312.08,-40.82 400.3,-121.81 87.58,-81.64 138.27,-207.39 151.44,-377.91l578.07 0zm2237.2 -286.4l-1110.71 0 0 754.52 1303.62 0 0 466.14 -1882.35 0 0 -2808.71 1878.4 0 0 470.09 -1299.67 0 0 667.62 1110.71 0 0 450.34z"/>
  <path class="fil4" d="M30863.58 1567.55c0,-27.16 -9.66,-48.12 -28.81,-62.68 -19.16,-14.4 -53.68,-29.79 -103.6,-45.99 -49.92,-16.04 -89.36,-32.08 -118.49,-47.63 -79.22,-42.87 -118.82,-100.64 -118.82,-173.32 0,-37.64 10.63,-71.35 31.91,-100.97 21.12,-29.63 51.72,-52.7 91.49,-69.39 39.77,-16.54 84.45,-24.89 134.04,-24.89 49.91,0 94.27,9.01 133.22,27.17 39.11,18.01 69.39,43.54 91,76.43 21.44,33.07 32.23,70.38 32.23,112.28l-143.69 0c0,-31.91 -10.14,-56.62 -30.28,-74.47 -20.13,-17.67 -48.45,-26.51 -84.94,-26.51 -35.02,0 -62.35,7.36 -81.99,22.25 -19.48,14.9 -29.14,34.54 -29.14,58.92 0,22.59 11.46,41.74 34.21,57.13 22.92,15.21 56.46,29.62 100.98,43.03 81.83,24.71 141.41,55.16 178.89,91.66 37.31,36.49 55.96,81.83 55.96,136.17 0,60.39 -22.74,107.84 -68.57,142.21 -45.66,34.38 -107.19,51.56 -184.45,51.56 -53.84,0 -102.61,-9.82 -146.8,-29.46 -44.03,-19.64 -77.74,-46.65 -100.98,-80.84 -23.08,-34.21 -34.7,-73.99 -34.7,-118.99l144.36 0c0,76.92 45.99,115.38 138.12,115.38 34.05,0 60.88,-6.88 80.04,-20.78 19.15,-13.92 28.81,-33.39 28.81,-58.27zm482.14 -200.48l145.16 -314.57 157.29 0 -229.14 445.01 0 253.18 -146.31 0 0 -253.18 -229.12 -445.01 157.77 0 144.35 314.57zm720.76 200.48c0,-27.16 -9.66,-48.12 -28.8,-62.68 -19.16,-14.4 -53.68,-29.79 -103.6,-45.99 -49.93,-16.04 -89.37,-32.08 -118.5,-47.63 -79.21,-42.87 -118.81,-100.64 -118.81,-173.32 0,-37.64 10.63,-71.35 31.91,-100.97 21.12,-29.63 51.72,-52.7 91.48,-69.39 39.78,-16.54 84.46,-24.89 134.05,-24.89 49.91,0 94.26,9.01 133.22,27.17 39.11,18.01 69.39,43.54 90.99,76.43 21.45,33.07 32.24,70.38 32.24,112.28l-143.69 0c0,-31.91 -10.15,-56.62 -30.28,-74.47 -20.13,-17.67 -48.45,-26.51 -84.94,-26.51 -35.02,0 -62.36,7.36 -81.99,22.25 -19.48,14.9 -29.14,34.54 -29.14,58.92 0,22.59 11.46,41.74 34.21,57.13 22.91,15.21 56.46,29.62 100.98,43.03 81.83,24.71 141.41,55.16 178.89,91.66 37.3,36.49 55.96,81.83 55.96,136.17 0,60.39 -22.74,107.84 -68.57,142.21 -45.66,34.38 -107.2,51.56 -184.45,51.56 -53.84,0 -102.62,-9.82 -146.8,-29.46 -44.03,-19.64 -77.74,-46.65 -100.98,-80.84 -23.08,-34.21 -34.7,-73.99 -34.7,-118.99l144.35 0c0,76.92 46,115.38 138.13,115.38 34.05,0 60.88,-6.88 80.04,-20.78 19.14,-13.92 28.8,-33.39 28.8,-58.27zm766.91 -398.19l-213.9 0 0 581.33 -143.86 0 0 -581.33 -210.96 0 0 -116.86 568.72 0 0 116.86zm501.96 277.9l-276.1 0 0 187.56 324.05 0 0 115.87 -467.91 0 0 -698.19 466.93 0 0 116.86 -323.07 0 0 165.96 276.1 0 0 111.94zm-149.92 -583.29l151.06 0 -132.9 148.27 -112.59 0 94.43 -148.27zm470.2 188.53l179.38 506.37 178.38 -506.37 188.88 0 0 698.19 -144.36 0 0 -190.83 14.41 -329.45 -188.38 520.28 -98.84 0 -187.89 -519.79 14.4 328.96 0 190.83 -143.86 0 0 -698.19 187.88 0zm1060.7 452.69l0 245.5 -143.86 0 0 -698.19 272.33 0c52.38,0 98.53,9.66 138.3,28.81 39.77,19.15 70.38,46.48 91.82,81.84 21.43,35.34 32.07,75.6 32.07,120.77 0,68.42 -23.4,122.43 -70.21,162.03 -46.81,39.45 -111.62,59.24 -194.43,59.24l-126.02 0zm0 -116.85l128.47 0c37.98,0 66.94,-9 87.08,-26.84 19.95,-17.83 29.94,-43.37 29.94,-76.59 0,-34.21 -10.15,-61.87 -30.28,-82.97 -20.13,-21.12 -47.95,-31.93 -83.46,-32.58l-131.75 0 0 218.98zm747.78 107.03l-114.58 0 0 255.32 -143.85 0 0 -698.19 259.4 0c82.49,0 146.15,18.34 190.83,55.16 44.84,36.83 67.11,88.71 67.11,155.97 0,47.63 -10.31,87.4 -30.94,119.15 -20.62,31.91 -51.71,57.28 -93.61,76.1l151.06 285.1 0 6.71 -154.5 0 -130.92 -255.32zm-114.58 -116.84l116.05 0c36.17,0 64.15,-9.18 83.96,-27.5 19.79,-18.33 29.78,-43.71 29.78,-75.94 0,-32.9 -9.49,-58.59 -28.15,-77.41 -18.66,-18.82 -47.3,-28.32 -86.09,-28.32l-115.55 0 0 209.17zm1056.29 38.95c0,68.73 -12.28,128.96 -36.51,180.84 -24.39,51.89 -59.08,91.81 -104.25,119.97 -45.33,28.14 -97.21,42.22 -155.64,42.22 -57.93,0 -109.49,-13.91 -154.82,-41.73 -45.51,-27.82 -80.69,-67.6 -105.56,-119.32 -24.89,-51.55 -37.48,-110.95 -37.82,-178.22l0 -34.54c0,-68.73 12.28,-129.29 37.16,-181.66 24.71,-52.2 59.73,-92.3 104.91,-120.29 45.33,-27.99 97.05,-42.07 155.15,-42.07 58.26,0 109.82,14.08 155.15,42.07 45.16,27.99 80.2,68.09 104.91,120.29 24.87,52.37 37.32,112.77 37.32,181.17l0 31.27zm-145.83 -31.75c0,-73.33 -13.09,-128.98 -39.28,-167.11 -26.35,-38.13 -63.66,-57.11 -112.27,-57.11 -48.28,0 -85.43,18.82 -111.78,56.46 -26.19,37.65 -39.45,92.8 -39.78,165.46l0 34.05c0,71.35 13.1,126.83 39.44,166.11 26.2,39.45 63.84,59.08 113.1,59.08 48.28,0 85.27,-18.98 111.29,-56.95 25.85,-37.81 38.94,-93.12 39.28,-165.79l0 -34.2zm857.27 181.82c0,-27.16 -9.66,-48.12 -28.81,-62.68 -19.16,-14.4 -53.68,-29.79 -103.6,-45.99 -49.92,-16.04 -89.36,-32.08 -118.49,-47.63 -79.22,-42.87 -118.82,-100.64 -118.82,-173.32 0,-37.64 10.63,-71.35 31.91,-100.97 21.12,-29.63 51.72,-52.7 91.49,-69.39 39.77,-16.54 84.45,-24.89 134.04,-24.89 49.91,0 94.27,9.01 133.22,27.17 39.11,18.01 69.39,43.54 91,76.43 21.44,33.07 32.23,70.38 32.23,112.28l-143.69 0c0,-31.91 -10.14,-56.62 -30.28,-74.47 -20.13,-17.67 -48.45,-26.51 -84.94,-26.51 -35.02,0 -62.35,7.36 -81.99,22.25 -19.48,14.9 -29.14,34.54 -29.14,58.92 0,22.59 11.46,41.74 34.21,57.13 22.92,15.21 56.46,29.62 100.98,43.03 81.83,24.71 141.41,55.16 178.89,91.66 37.31,36.49 55.96,81.83 55.96,136.17 0,60.39 -22.74,107.84 -68.57,142.21 -45.66,34.38 -107.19,51.56 -184.45,51.56 -53.84,0 -102.61,-9.82 -146.8,-29.46 -44.03,-19.64 -77.74,-46.65 -100.98,-80.84 -23.08,-34.21 -34.7,-73.99 -34.7,-118.99l144.36 0c0,76.92 45.99,115.38 138.12,115.38 34.05,0 60.88,-6.88 80.04,-20.78 19.15,-13.92 28.81,-33.39 28.81,-58.27zm385.25 -62.36l0 245.5 -143.86 0 0 -698.19 272.33 0c52.38,0 98.53,9.66 138.3,28.81 39.77,19.15 70.37,46.48 91.82,81.84 21.43,35.34 32.07,75.6 32.07,120.77 0,68.42 -23.4,122.43 -70.21,162.03 -46.81,39.45 -111.62,59.24 -194.43,59.24l-126.02 0zm0 -116.85l128.47 0c37.98,0 66.94,-9 87.07,-26.84 19.96,-17.83 29.95,-43.37 29.95,-76.59 0,-34.21 -10.15,-61.87 -30.28,-82.97 -20.13,-21.12 -47.95,-31.93 -83.46,-32.58l-131.75 0 0 218.98zm747.77 107.03l-114.57 0 0 255.32 -143.85 0 0 -698.19 259.4 0c82.48,0 146.15,18.34 190.83,55.16 44.84,36.83 67.11,88.71 67.11,155.97 0,47.63 -10.31,87.4 -30.94,119.15 -20.62,31.91 -51.71,57.28 -93.61,76.1l151.06 285.1 0 6.71 -154.5 0 -130.93 -255.32zm-114.57 -116.84l116.05 0c36.17,0 64.15,-9.18 83.95,-27.5 19.8,-18.33 29.78,-43.71 29.78,-75.94 0,-32.9 -9.48,-58.59 -28.14,-77.41 -18.66,-18.82 -47.3,-28.32 -86.09,-28.32l-115.55 0 0 209.17zm877.07 228.79l-252.21 0 -47.95 143.37 -152.86 0 259.73 -698.19 133.39 0 261.37 698.19 -153.03 0 -48.44 -143.37zm-213.42 -116.85l174.63 0 -87.72 -261.54 -86.91 261.54zm116.86 -624.54l151.05 0 -132.89 148.28 -112.59 0 94.43 -148.28zm584.44 711.6l158.09 -525.03 160.23 0 -243.04 698.19 -150.08 0 -242.23 -698.19 159.74 0 157.29 525.03zm912.24 -525.03l0 460.06c0,76.43 -23.89,136.82 -71.68,181.34 -47.79,44.35 -113.09,66.61 -195.91,66.61 -81.5,0 -146.31,-21.6 -194.26,-64.81 -47.95,-43.05 -72.34,-102.45 -73.33,-177.9l0 -465.3 143.87 0 0 460.72c0,45.82 10.96,79.04 32.9,99.99 21.93,20.95 52.21,31.43 90.82,31.43 80.85,0 121.94,-42.56 123.25,-127.49l0 -464.65 144.34 0z"/>
 </g>
</svg>
